# Blender v2.69 (sub 0) OBJ File: ''
# www.blender.org
mtllib complexCar.mtl
o Cube
v 0.500000 -0.250000 -1.000000
v 0.500000 -0.250000 1.000000
v -0.500000 -0.250000 1.000000
v -0.500000 -0.250000 -1.000000
v 0.500000 0.250000 -1.499999
v 0.500000 0.250000 1.500001
v -0.500000 0.250000 1.499999
v -0.500000 0.250000 -1.500000
v 0.402404 0.545226 -1.207210
v 0.402403 0.545226 1.207211
v -0.402404 0.545226 1.207210
v -0.402403 0.545226 -1.207210
v 0.402403 1.062346 0.185588
v 0.000000 0.545226 -1.207210
v -0.000000 0.545226 1.207210
v -0.402403 1.062346 0.185587
v -0.000000 1.062346 0.185587
v 0.402403 1.062346 0.789193
v -0.201202 0.545226 -1.207210
v -0.201202 0.545226 1.207210
v -0.402403 0.545226 -0.603605
v 0.402403 0.545226 -0.603604
v 0.201202 0.545226 -1.207210
v 0.201201 0.545226 1.207211
v -0.402404 1.062346 0.789192
v -0.000000 1.062346 0.789192
v 0.000000 0.545226 -0.603605
v 0.201202 1.062346 0.185588
v -0.201202 1.062346 0.185587
v -0.201202 1.062346 0.789192
v 0.201202 1.062346 0.789193
v 0.201202 0.545226 -0.603605
v -0.201202 0.545226 -0.603605
v 0.000000 1.151063 -1.026720
v -0.080875 1.151063 -1.026720
v 0.080875 1.151063 -1.026720
v 0.000000 1.151063 -0.784095
v 0.080875 1.151063 -0.784095
v -0.080875 1.151063 -0.784095
v 0.000000 0.613769 -1.437285
v -0.201202 0.613769 -1.437285
v 0.201202 0.613769 -1.437284
v 0.000000 1.219607 -1.256795
v -0.080875 1.219607 -1.256795
v 0.080875 1.219607 -1.256795
v -0.141038 0.848144 -1.116965
v 0.141039 0.848144 -1.116965
v 0.080875 1.185335 -1.141757
v -0.141038 0.916688 -1.347040
v 0.141039 0.916688 -1.347040
v 0.201202 0.579497 -1.322247
v -0.201202 0.579497 -1.322247
v -0.080875 1.185335 -1.141757
v -0.141038 0.882416 -1.232002
v 0.141039 0.882416 -1.232002
v -0.399649 1.111074 -1.138832
v -0.399649 1.124783 -1.184847
v -0.411682 1.050490 -1.156881
v -0.411682 1.064199 -1.202896
v -0.399649 1.117929 -1.161839
v -0.411682 1.057345 -1.179888
v 0.399649 1.111074 -1.138831
v 0.399649 1.124783 -1.184846
v 0.411682 1.050490 -1.156880
v 0.399649 1.117929 -1.161839
v 0.411682 1.064199 -1.202895
v 0.411682 1.057345 -1.179888
vn 0.000000 -1.000000 0.000000
vn -1.000000 0.000000 -0.000000
vn 1.000000 -0.000000 0.000000
vn -0.000000 -0.707107 0.707106
vn 0.000001 -0.707106 -0.707107
vn -0.000002 0.628649 0.777689
vn -0.000001 0.704172 0.710030
vn 0.000001 0.704172 -0.710030
vn -0.000001 0.628650 0.777689
vn 0.000001 0.836430 -0.548074
vn -0.000001 0.628649 0.777689
vn 0.000000 1.000000 0.000000
vn -0.980842 0.194807 -0.000000
vn 0.000000 0.836430 -0.548074
vn -0.000001 0.285517 0.958374
vn 0.000000 1.000000 -0.000001
vn 0.980842 0.194807 0.000000
vn -0.559141 -0.794562 -0.236714
vn 0.982362 0.179203 0.053388
vn 0.000000 0.285517 -0.958374
vn 0.000001 0.285517 -0.958374
vn 0.000000 0.958373 0.285518
vn 0.000000 -0.958374 -0.285516
vn -0.982362 0.179204 0.053387
vn -0.982362 0.179204 0.053388
vn -0.559141 -0.794561 -0.236716
vn 0.559141 -0.794562 -0.236712
vn 0.559140 -0.794562 -0.236715
vn 0.982362 0.179204 0.053389
vn -0.982362 0.179205 0.053387
vn -0.215457 0.935865 0.278811
vn -0.299477 0.326556 -0.896479
vn -0.299477 -0.217295 0.929030
vn -0.215458 0.935865 0.278811
vn 0.982362 0.179205 0.053390
vn 0.982362 0.179204 0.053388
vn 0.215457 0.935865 0.278811
vn 0.299476 0.326557 -0.896479
vn 0.215457 0.935864 0.278813
vn 0.299477 -0.217295 0.929030
vn -0.949464 0.313877 0.000000
vn 1.000000 0.000001 0.000000
vn -0.000001 -0.707106 0.707107
vn 0.000000 -0.707107 -0.707107
vn 0.000000 0.704171 -0.710030
vn 0.000001 0.704172 -0.710029
vn 0.949464 0.313877 0.000000
vn 0.000000 1.000000 0.000001
vn -0.559139 -0.794563 -0.236713
vn 0.982363 0.179203 0.053388
vn 0.000002 0.285517 -0.958374
vn 0.000001 0.285516 -0.958374
vn 0.000000 0.958374 0.285515
vn -0.000002 0.958374 0.285515
vn 0.000000 0.958374 0.285516
vn 0.000001 -0.958373 -0.285518
vn 0.000001 -0.958374 -0.285516
vn -0.982362 0.179203 0.053387
vn -0.559140 -0.794564 -0.236707
vn 0.559140 -0.794560 -0.236721
vn 0.559145 -0.794559 -0.236712
vn -0.982363 0.179203 0.053386
vn -0.215459 0.935868 0.278798
vn -0.299476 0.326557 -0.896479
vn -0.299477 -0.217293 0.929030
vn -0.215457 0.935867 0.278804
vn 0.982362 0.179202 0.053389
vn 0.982363 0.179203 0.053387
vn 0.215459 0.935867 0.278804
vn 0.299478 0.326556 -0.896479
vn 0.215458 0.935869 0.278797
vn 0.299474 -0.217295 0.929031
usemtl Material
s off
f 1//1 2//1 4//1
f 16//2 11//2 25//2
f 1//3 5//3 6//3
f 2//4 6//4 3//4
f 3//2 7//2 4//2
f 5//5 1//5 8//5
f 30//6 25//6 20//6
f 7//7 6//7 10//7
f 5//8 8//8 12//8
f 10//3 13//3 18//3
f 31//9 26//9 24//9
f 32//10 27//10 28//10
f 33//10 21//10 29//10
f 26//11 30//11 15//11
f 17//12 29//12 26//12
f 29//12 16//12 30//12
f 18//6 31//6 10//6
f 13//12 28//12 18//12
f 28//12 17//12 31//12
f 22//10 32//10 13//10
f 9//12 23//12 22//12
f 19//13 33//13 39//13
f 27//14 33//14 17//14
f 33//15 27//15 37//15
f 19//12 12//12 33//12
f 36//16 34//16 38//16
f 34//12 35//12 37//12
f 27//15 32//15 37//15
f 32//17 23//17 38//17
f 49//18 54//18 61//18
f 55//19 51//19 50//19
f 42//20 40//20 50//20
f 40//21 41//21 49//21
f 34//22 36//22 48//22
f 35//22 34//22 53//22
f 23//23 14//23 40//23
f 40//23 14//23 41//23
f 52//24 54//24 41//24
f 19//25 46//25 52//25
f 54//26 46//26 61//26
f 55//27 50//27 67//27
f 47//28 55//28 67//28
f 47//29 23//29 55//29
f 61//25 60//25 59//25
f 58//30 56//30 61//30
f 35//31 53//31 60//31
f 44//32 49//32 57//32
f 46//33 35//33 58//33
f 53//34 44//34 60//34
f 65//35 67//35 63//35
f 62//36 64//36 67//36
f 45//37 48//37 65//37
f 50//38 45//38 66//38
f 48//39 36//39 65//39
f 36//40 47//40 62//40
f 2//1 3//1 4//1
f 21//2 11//2 16//2
f 12//41 8//41 21//41
f 8//41 7//41 21//41
f 7//41 11//41 21//41
f 2//42 1//42 6//42
f 6//43 7//43 3//43
f 7//2 8//2 4//2
f 1//44 4//44 8//44
f 25//11 11//11 20//11
f 11//7 7//7 20//7
f 7//7 10//7 24//7
f 20//7 7//7 15//7
f 7//7 24//7 15//7
f 9//8 5//8 23//8
f 5//8 12//8 19//8
f 23//45 5//45 14//45
f 5//46 19//46 14//46
f 10//3 22//3 13//3
f 5//47 9//47 22//47
f 6//47 5//47 10//47
f 5//47 22//47 10//47
f 26//6 15//6 24//6
f 27//10 17//10 28//10
f 21//10 16//10 29//10
f 30//11 20//11 15//11
f 29//12 30//12 26//12
f 16//12 25//12 30//12
f 31//6 24//6 10//6
f 28//12 31//12 18//12
f 17//12 26//12 31//12
f 32//10 28//10 13//10
f 23//12 32//12 22//12
f 46//13 19//13 39//13
f 35//13 46//13 39//13
f 33//10 29//10 17//10
f 39//15 33//15 37//15
f 12//12 21//12 33//12
f 34//48 37//48 38//48
f 35//12 39//12 37//12
f 32//15 38//15 37//15
f 23//17 47//17 38//17
f 47//17 36//17 38//17
f 59//49 49//49 61//49
f 51//50 42//50 50//50
f 40//20 43//20 45//20
f 50//51 40//51 45//51
f 43//20 40//20 44//20
f 40//52 49//52 44//52
f 43//53 34//53 45//53
f 34//54 48//54 45//54
f 34//55 43//55 44//55
f 53//53 34//53 44//53
f 51//56 23//56 40//56
f 42//23 51//23 40//23
f 14//57 19//57 52//57
f 41//23 14//23 52//23
f 54//25 49//25 41//25
f 46//58 54//58 52//58
f 46//59 58//59 61//59
f 50//60 66//60 67//60
f 64//61 47//61 67//61
f 23//36 51//36 55//36
f 60//25 57//25 59//25
f 56//62 60//62 61//62
f 56//63 35//63 60//63
f 49//64 59//64 57//64
f 35//65 56//65 58//65
f 44//66 57//66 60//66
f 67//67 66//67 63//67
f 65//68 62//68 67//68
f 63//69 45//69 65//69
f 45//70 63//70 66//70
f 36//71 62//71 65//71
f 47//72 64//72 62//72
