# Blender v2.71 (sub 0) OBJ File: 'landscape_v2.blend'
# www.blender.org
mtllib roadbend.mtl
o road-corner-low_Cube.127
v 3.999999 -1.000000 3.999997
v -3.999997 -1.000000 4.000000
v -3.999999 -1.000000 -3.999997
v 3.999997 1.000000 3.999999
v -3.999999 1.000000 3.999997
v -3.999999 1.000000 2.999998
v -3.999998 1.000000 -2.999999
v -3.999998 1.100000 -2.999999
v -3.999998 1.100000 -2.000000
v -3.999999 1.100000 1.999998
v -3.999999 1.100000 2.999998
v -3.999999 1.000000 1.999998
v -3.999998 1.000000 -2.000000
v 3.999998 0.000000 3.999998
v -3.999998 0.000000 3.999998
v -3.999999 0.000000 -3.999998
v -3.999997 -1.000000 3.000000
v -3.999997 -1.000000 2.000000
v -3.999998 -1.000000 -1.999998
v -3.999999 -1.000000 -2.999998
v -3.999998 0.000000 2.999999
v -3.999998 0.000000 1.999999
v -3.999998 0.000000 -1.999999
v -3.999998 0.000000 -2.999998
v 4.000000 -1.000000 -4.000000
v 3.999998 0.000000 -3.999998
v 3.000000 -1.000000 -3.999999
v 2.000000 -1.000000 -3.999999
v -1.999998 -1.000000 -3.999998
v -2.999998 -1.000000 -3.999998
v 2.999999 0.000000 -3.999998
v 1.999999 0.000000 -3.999998
v -1.999999 0.000000 -3.999998
v -2.999998 0.000000 -3.999998
v -2.634367 1.000000 2.865493
v -3.804908 1.000000 -3.019215
v -3.804908 1.100000 -3.019215
v -3.609818 1.100000 -2.038431
v -2.829457 1.100000 1.884708
v -2.634367 1.100000 2.865493
v -2.829457 1.000000 1.884708
v -3.609818 1.000000 -2.038431
v -1.321216 1.000000 2.467151
v -3.617316 1.000000 -3.076123
v -3.617316 1.100000 -3.076123
v -3.234632 1.100000 -2.152244
v -1.703899 1.100000 1.543272
v -1.321216 1.100000 2.467151
v -1.703899 1.000000 1.543272
v -3.234632 1.000000 -2.152244
v -0.111009 1.000000 1.820279
v -3.444430 1.000000 -3.168535
v -3.444430 1.100000 -3.168535
v -2.888859 1.100000 -2.337066
v -0.666579 1.100000 0.988811
v -0.111009 1.100000 1.820279
v -0.666579 1.000000 0.988811
v -2.888859 1.000000 -2.337066
v 0.949745 1.000000 0.949738
v -3.292894 1.000000 -3.292899
v -3.292894 1.100000 -3.292899
v -2.585787 1.100000 -2.585793
v 0.242639 1.100000 0.242632
v 0.949745 1.100000 0.949738
v 0.242639 1.000000 0.242632
v -2.585787 1.000000 -2.585793
v 1.820283 1.000000 -0.111019
v -3.168533 1.000000 -3.444437
v -3.168533 1.100000 -3.444437
v -2.337063 1.100000 -2.888867
v 0.988814 1.100000 -0.666588
v 1.820283 1.100000 -0.111019
v 0.988814 1.000000 -0.666588
v -2.337063 1.000000 -2.888867
v 2.467151 1.000000 -1.321227
v -3.076124 1.000000 -3.617325
v -3.076124 1.100000 -3.617325
v -2.152245 1.100000 -3.234642
v 1.543272 1.100000 -1.703910
v 2.467151 1.100000 -1.321227
v 1.543272 1.000000 -1.703910
v -2.152245 1.000000 -3.234642
v 2.865489 1.000000 -2.634379
v -3.019221 1.000000 -3.804919
v -3.019221 1.100000 -3.804919
v -2.038435 1.100000 -3.609829
v 1.884704 1.100000 -2.829469
v 2.865489 1.100000 -2.634379
v 1.884704 1.000000 -2.829469
v -2.038435 1.000000 -3.609829
v 3.999989 1.000000 -4.000012
v -4.000007 1.000000 -4.000010
v 2.999989 1.000000 -4.000011
v -3.000008 1.000000 -4.000010
v -3.000008 1.100000 -4.000010
v -2.000008 1.100000 -4.000010
v 1.999990 1.100000 -4.000010
v 2.999989 1.100000 -4.000011
v 1.999990 1.000000 -4.000010
v -2.000008 1.000000 -4.000010
vt 0.376858 0.072489
vt 0.427567 0.077448
vt 0.393761 0.246197
vt 0.476327 0.092135
vt 0.410014 0.251092
vt 0.521265 0.115984
vt 0.424993 0.259042
vt 0.560653 0.148080
vt 0.438123 0.269741
vt 0.592978 0.187189
vt 0.448898 0.282777
vt 0.616998 0.231808
vt 0.456904 0.297650
vt 0.631789 0.280222
vt 0.461835 0.313788
vt 0.636783 0.330571
vt 0.463499 0.330571
vt 0.376858 0.244544
vt 0.823489 0.191495
vt 0.875560 0.191495
vt 0.875560 0.196245
vt 0.845133 0.387689
vt 0.897204 0.387689
vt 0.897204 0.392439
vt 0.924562 0.199982
vt 0.924562 0.255686
vt 0.919273 0.255686
vt 0.715277 0.492311
vt 0.715277 0.446219
vt 0.720566 0.446219
vt 0.836279 0.506652
vt 0.790238 0.456264
vt 0.834212 0.429873
vt 0.815734 0.336534
vt 0.802579 0.322138
vt 0.846553 0.295747
vt 0.837561 0.340061
vt 0.837561 0.349345
vt 0.832272 0.349345
vt 0.908696 0.385944
vt 0.908696 0.372775
vt 0.913984 0.372775
vt 0.924562 0.311166
vt 0.919273 0.311166
vt 0.715277 0.392020
vt 0.720566 0.392020
vt 0.756026 0.398776
vt 0.804888 0.380598
vt 0.792804 0.305713
vt 0.841666 0.287534
vt 0.837561 0.358592
vt 0.832272 0.358592
vt 0.908696 0.357289
vt 0.913984 0.357289
vt 0.924562 0.364291
vt 0.919273 0.364291
vt 0.715277 0.331798
vt 0.720566 0.331798
vt 0.734959 0.336399
vt 0.786830 0.327132
vt 0.786785 0.287891
vt 0.838656 0.278623
vt 0.837561 0.367446
vt 0.832272 0.367446
vt 0.908696 0.340083
vt 0.913984 0.340083
vt 0.924562 0.413020
vt 0.919273 0.413020
vt 0.715277 0.267867
vt 0.720566 0.267867
vt 0.727845 0.271529
vt 0.780733 0.271529
vt 0.784752 0.269356
vt 0.837640 0.269356
vt 0.837561 0.375567
vt 0.832272 0.375567
vt 0.908696 0.321817
vt 0.913984 0.321817
vt 0.929851 0.364291
vt 0.715277 0.202682
vt 0.720566 0.202682
vt 0.734959 0.206658
vt 0.786830 0.215926
vt 0.786784 0.250822
vt 0.838656 0.260089
vt 0.832272 0.411074
vt 0.832272 0.402952
vt 0.837561 0.402952
vt 0.908696 0.303193
vt 0.913984 0.303193
vt 0.929851 0.311166
vt 0.715277 0.138751
vt 0.720566 0.138751
vt 0.756026 0.144281
vt 0.804888 0.162459
vt 0.792804 0.233000
vt 0.841666 0.251178
vt 0.832272 0.394098
vt 0.837561 0.394098
vt 0.908696 0.284926
vt 0.913984 0.284926
vt 0.929851 0.255686
vt 0.715277 0.078528
vt 0.720566 0.078528
vt 0.790238 0.086794
vt 0.834212 0.113184
vt 0.802578 0.216575
vt 0.846553 0.242965
vt 0.832272 0.384851
vt 0.837561 0.384851
vt 0.908696 0.267720
vt 0.913984 0.267720
vt 0.929851 0.199982
vt 0.715277 0.024330
vt 0.720566 0.024330
vt 0.836279 0.036406
vt 0.873676 0.069995
vt 0.815733 0.202178
vt 0.853131 0.235767
vt 0.908696 0.252235
vt 0.913984 0.252235
vt 0.897204 0.335437
vt 0.897204 0.340187
vt 0.845133 0.340187
vt 0.881834 0.149164
vt 0.881834 0.144414
vt 0.933905 0.144414
vt 0.823489 0.196245
vt 0.845133 0.392439
vt 0.919273 0.199982
vt 0.720566 0.492311
vt 0.873676 0.473063
vt 0.853131 0.302945
vt 0.832272 0.340061
vt 0.913984 0.385944
vt 0.929851 0.413020
vt 0.837561 0.411074
vt 0.845133 0.335436
vt 0.933905 0.149164
vt 0.315977 0.083698
vt 0.242933 0.083698
vt 0.242933 0.022829
vt 0.315977 0.509787
vt 0.242933 0.509787
vt 0.242933 0.448917
vt 0.315977 0.448917
vt 0.242933 0.388047
vt 0.767496 0.743432
vt 0.807652 0.743432
vt 0.807652 0.779572
vt 0.823489 0.143993
vt 0.875560 0.143993
vt 0.315977 0.388047
vt 0.242933 0.144568
vt 0.315977 0.144568
vt 0.394090 0.287888
vt 0.437411 0.287888
vt 0.437411 0.459943
vt 0.897204 0.439941
vt 0.845133 0.439941
vt 0.096846 0.022829
vt 0.096846 0.083698
vt 0.023802 0.083698
vt 0.096846 0.144568
vt 0.023802 0.144568
vt 0.096846 0.388047
vt 0.023802 0.388047
vt 0.096846 0.448917
vt 0.023802 0.448917
vt 0.929183 0.679926
vt 0.990736 0.872239
vt 0.903207 0.723664
vt 0.825653 0.793462
vt 0.777055 0.816841
vt 0.724324 0.831237
vt 0.669485 0.836098
vt 0.945179 0.632467
vt 0.950580 0.583112
vt 0.169889 0.509787
vt 0.169889 0.022829
vt 0.096846 0.509787
vt 0.990736 0.908380
vt 0.990736 0.944521
vt 0.669485 0.944521
vt 0.990736 0.583112
vt 0.868249 0.762000
vt 0.669485 0.872239
vt 0.807652 0.598868
vt 0.807652 0.635009
vt 0.767495 0.635009
vt 0.023802 0.509787
vt 0.807652 0.707291
vt 0.767496 0.707291
vt 0.767495 0.671150
vt 0.394090 0.459943
vt 0.350769 0.459943
vt 0.933905 0.196666
vt 0.881834 0.196666
vt 0.806880 0.642060
vt 0.804595 0.648840
vt 0.800884 0.655088
vt 0.795890 0.660565
vt 0.789805 0.665059
vt 0.782862 0.668399
vt 0.775329 0.670456
vt 0.315977 0.022829
vt 0.767496 0.779572
vt 0.023802 0.022829
vt 0.669485 0.908380
vt 0.767495 0.598868
vt 0.807652 0.671150
vt 0.350769 0.287889
vn 0.000000 1.000000 0.000000
vn -1.000000 0.000000 -0.000000
vn -0.098000 0.000000 -0.995200
vn 0.098000 0.000000 0.995200
vn -0.290300 0.000000 -0.956900
vn 0.290300 0.000000 0.956900
vn -0.471400 0.000000 -0.881900
vn 0.471400 0.000000 0.881900
vn -0.634400 0.000000 -0.773000
vn 0.634400 0.000000 0.773000
vn -0.773000 0.000000 -0.634400
vn 0.773000 0.000000 0.634400
vn -0.881900 0.000000 -0.471400
vn 0.881900 0.000000 0.471400
vn -0.956900 0.000000 -0.290300
vn 0.956900 0.000000 0.290300
vn -0.995200 0.000000 -0.098000
vn 0.995200 0.000000 0.098000
vn -0.000000 0.000000 -1.000000
vn 0.000000 -0.000000 1.000000
vn 1.000000 0.000000 -0.000000
g road-corner-low_Cube.127_Road
usemtl Road
s off
f 12/1/1 41/2/1 42/3/1
f 41/2/1 49/4/1 50/5/1
f 49/4/1 57/6/1 58/7/1
f 57/6/1 65/8/1 66/9/1
f 65/8/1 73/10/1 74/11/1
f 73/10/1 81/12/1 82/13/1
f 81/12/1 89/14/1 90/15/1
f 89/14/1 99/16/1 100/17/1
f 13/18/1 12/1/1 42/3/1
f 42/3/1 41/2/1 50/5/1
f 50/5/1 49/4/1 58/7/1
f 58/7/1 57/6/1 66/9/1
f 66/9/1 65/8/1 74/11/1
f 74/11/1 73/10/1 82/13/1
f 82/13/1 81/12/1 90/15/1
f 90/15/1 89/14/1 100/17/1
g road-corner-low_Cube.127_Border
usemtl Border
f 12/19/2 6/20/2 11/21/2
f 9/22/2 8/23/2 7/24/2
f 10/25/3 39/26/3 41/27/3
f 6/28/4 35/29/4 40/30/4
f 11/31/1 40/32/1 39/33/1
f 9/34/1 38/35/1 37/36/1
f 8/37/3 37/38/3 36/39/3
f 13/40/4 42/41/4 38/42/4
f 39/26/5 47/43/5 49/44/5
f 35/29/6 43/45/6 48/46/6
f 40/32/1 48/47/1 47/48/1
f 38/35/1 46/49/1 45/50/1
f 37/38/5 45/51/5 44/52/5
f 42/41/6 50/53/6 46/54/6
f 47/43/7 55/55/7 57/56/7
f 43/45/8 51/57/8 56/58/8
f 48/47/1 56/59/1 55/60/1
f 46/49/1 54/61/1 53/62/1
f 45/51/7 53/63/7 52/64/7
f 50/53/8 58/65/8 54/66/8
f 55/55/9 63/67/9 65/68/9
f 51/57/10 59/69/10 64/70/10
f 56/59/1 64/71/1 63/72/1
f 54/61/1 62/73/1 61/74/1
f 53/63/9 61/75/9 60/76/9
f 58/65/10 66/77/10 62/78/10
f 63/67/11 71/55/11 73/79/11
f 59/69/12 67/80/12 72/81/12
f 64/71/1 72/82/1 71/83/1
f 62/73/1 70/84/1 69/85/1
f 61/86/11 69/87/11 68/88/11
f 66/77/12 74/89/12 70/90/12
f 71/55/13 79/43/13 81/91/13
f 67/80/14 75/92/14 80/93/14
f 72/82/1 80/94/1 79/95/1
f 70/84/1 78/96/1 77/97/1
f 69/87/13 77/98/13 76/99/13
f 74/89/14 82/100/14 78/101/14
f 79/43/15 87/26/15 89/102/15
f 75/92/16 83/103/16 88/104/16
f 80/94/1 88/105/1 87/106/1
f 78/96/1 86/107/1 85/108/1
f 77/98/15 85/109/15 84/110/15
f 82/100/16 90/111/16 86/112/16
f 87/26/17 97/25/17 99/113/17
f 83/103/18 93/114/18 98/115/18
f 88/105/1 98/116/1 97/117/1
f 86/107/1 96/118/1 95/119/1
f 85/109/17 95/76/17 94/75/17
f 90/111/18 100/120/18 96/121/18
f 98/122/19 93/123/19 99/124/19
f 94/125/19 95/126/19 96/127/19
f 10/128/2 12/19/2 11/21/2
f 13/129/2 9/22/2 7/24/2
f 12/130/3 10/25/3 41/27/3
f 11/131/4 6/28/4 40/30/4
f 10/132/1 11/31/1 39/33/1
f 8/133/1 9/34/1 37/36/1
f 7/134/3 8/37/3 36/39/3
f 9/135/4 13/40/4 38/42/4
f 41/27/5 39/26/5 49/44/5
f 40/30/6 35/29/6 48/46/6
f 39/33/1 40/32/1 47/48/1
f 37/36/1 38/35/1 45/50/1
f 36/39/5 37/38/5 44/52/5
f 38/42/6 42/41/6 46/54/6
f 49/44/7 47/43/7 57/56/7
f 48/46/8 43/45/8 56/58/8
f 47/48/1 48/47/1 55/60/1
f 45/50/1 46/49/1 53/62/1
f 44/52/7 45/51/7 52/64/7
f 46/54/8 50/53/8 54/66/8
f 57/56/9 55/55/9 65/68/9
f 56/58/10 51/57/10 64/70/10
f 55/60/1 56/59/1 63/72/1
f 53/62/1 54/61/1 61/74/1
f 52/64/9 53/63/9 60/76/9
f 54/66/10 58/65/10 62/78/10
f 65/136/11 63/67/11 73/79/11
f 64/70/12 59/69/12 72/81/12
f 63/72/1 64/71/1 71/83/1
f 61/74/1 62/73/1 69/85/1
f 60/137/11 61/86/11 68/88/11
f 62/78/12 66/77/12 70/90/12
f 73/79/13 71/55/13 81/91/13
f 72/81/14 67/80/14 80/93/14
f 71/83/1 72/82/1 79/95/1
f 69/85/1 70/84/1 77/97/1
f 68/88/13 69/87/13 76/99/13
f 70/90/14 74/89/14 78/101/14
f 81/91/15 79/43/15 89/102/15
f 80/93/16 75/92/16 88/104/16
f 79/95/1 80/94/1 87/106/1
f 77/97/1 78/96/1 85/108/1
f 76/99/15 77/98/15 84/110/15
f 78/101/16 82/100/16 86/112/16
f 89/102/17 87/26/17 99/113/17
f 88/104/18 83/103/18 98/115/18
f 87/106/1 88/105/1 97/117/1
f 85/108/1 86/107/1 95/119/1
f 84/110/17 85/109/17 94/75/17
f 86/112/18 90/111/18 96/121/18
f 97/138/19 98/122/19 99/124/19
f 100/139/19 94/125/19 96/127/19
g road-corner-low_Cube.127_Ground
usemtl Ground
f 20/140/2 24/141/2 16/142/2
f 2/143/2 15/144/2 21/145/2
f 17/146/2 21/145/2 22/147/2
f 6/148/2 21/149/2 15/150/2
f 12/19/2 22/151/2 21/152/2
f 18/153/2 22/147/2 23/154/2
f 19/155/2 23/154/2 24/141/2
f 13/156/2 23/157/2 22/158/2
f 7/24/2 24/159/2 23/160/2
f 25/161/19 27/162/19 31/163/19
f 27/162/19 28/164/19 32/165/19
f 28/164/19 29/166/19 33/167/19
f 29/166/19 30/168/19 34/169/19
f 43/170/1 4/171/1 51/172/1
f 67/173/1 4/171/1 75/174/1
f 83/175/1 4/171/1 93/176/1
f 35/177/1 6/178/1 4/171/1
f 1/144/20 14/179/20 15/180/20
f 25/179/21 26/181/21 14/161/21
f 5/182/20 15/183/20 14/184/20
f 35/177/1 4/171/1 43/170/1
f 6/178/1 5/185/1 4/171/1
f 51/172/1 4/171/1 59/186/1
f 59/186/1 4/171/1 67/173/1
f 75/174/1 4/171/1 83/175/1
f 4/171/1 91/187/1 93/176/1
f 92/188/2 16/189/2 24/190/2
f 3/181/19 16/191/19 34/169/19
f 34/192/19 16/193/19 92/194/19
f 26/148/19 31/193/19 93/192/19
f 31/23/19 32/22/19 99/124/19
f 32/156/19 33/195/19 100/196/19
f 33/197/19 34/198/19 94/125/19
f 92/190/1 7/189/1 36/199/1
f 92/190/1 36/199/1 44/200/1
f 92/190/1 44/200/1 52/201/1
f 92/190/1 52/201/1 60/202/1
f 92/190/1 60/202/1 68/203/1
f 92/190/1 68/203/1 76/204/1
f 92/190/1 76/204/1 84/205/1
f 92/190/1 84/205/1 94/194/1
f 14/187/21 26/171/21 91/182/21
f 3/206/2 20/140/2 16/142/2
f 17/146/2 2/143/2 21/145/2
f 18/153/2 17/146/2 22/147/2
f 5/207/2 6/148/2 15/150/2
f 6/20/2 12/19/2 21/152/2
f 19/155/2 18/153/2 23/154/2
f 20/140/2 19/155/2 24/141/2
f 12/195/2 13/156/2 22/158/2
f 13/129/2 7/24/2 23/160/2
f 26/208/19 25/161/19 31/163/19
f 31/163/19 27/162/19 32/165/19
f 32/165/19 28/164/19 33/167/19
f 33/167/19 29/166/19 34/169/19
f 2/142/20 1/144/20 15/180/20
f 1/180/21 25/179/21 14/161/21
f 4/209/20 5/182/20 14/184/20
f 7/210/2 92/188/2 24/190/2
f 30/168/19 3/181/19 34/169/19
f 94/211/19 34/192/19 92/194/19
f 91/149/19 26/148/19 93/192/19
f 93/123/19 31/23/19 99/124/19
f 99/212/19 32/156/19 100/196/19
f 100/139/19 33/197/19 94/125/19
f 4/209/21 14/187/21 91/182/21
