# Blender v2.71 (sub 0) OBJ File: 'landscape_v2.blend'
# www.blender.org
mtllib roadbend.mtl
o road-corner-low_Cube.127
v 3.999999 -2.000000 3.999997
v -3.999997 -2.000000 4.000000
v -3.999999 -2.000000 -3.999997
v -3.999999 0.000000 2.999998
v -3.999998 0.000000 -2.999999
v -3.999998 0.100000 -2.999999
v -3.999998 0.100000 -2.000000
v -3.999999 0.100000 1.999998
v -3.999999 0.100000 2.999998
v -3.999999 0.050000 1.999998
v -3.999998 0.050000 -2.000000
v 3.999998 -1.000000 3.999998
v -3.999998 -1.000000 3.999998
v -3.999999 -1.000000 -3.999998
v -3.999997 -2.000000 3.000000
v -3.999997 -2.000000 2.000000
v -3.999998 -2.000000 -1.999998
v -3.999999 -2.000000 -2.999998
v -3.999998 -1.000000 2.999999
v -3.999998 -1.000000 1.999999
v -3.999998 -1.000000 -1.999999
v -3.999998 -1.000000 -2.999998
v 4.000000 -2.000000 -4.000000
v 3.999998 -1.000000 -3.999998
v 3.000000 -2.000000 -3.999999
v 2.000000 -2.000000 -3.999999
v -1.999998 -2.000000 -3.999998
v -2.999998 -2.000000 -3.999998
v 2.999999 -1.000000 -3.999998
v 1.999999 -1.000000 -3.999998
v -1.999999 -1.000000 -3.999998
v -2.999998 -1.000000 -3.999998
v -2.634367 0.000000 2.865493
v -3.804908 0.000000 -3.019215
v -3.804908 0.100000 -3.019215
v -3.609818 0.100000 -2.038431
v -2.829457 0.100000 1.884708
v -2.634367 0.100000 2.865493
v -2.829457 0.050000 1.884708
v -3.609818 0.050000 -2.038431
v -1.321216 0.000000 2.467151
v -3.617316 0.000000 -3.076123
v -3.617316 0.100000 -3.076123
v -3.234632 0.100000 -2.152244
v -1.703899 0.100000 1.543272
v -1.321216 0.100000 2.467151
v -1.703899 0.050000 1.543272
v -3.234632 0.050000 -2.152244
v -0.111009 0.000000 1.820279
v -3.444430 0.000000 -3.168535
v -3.444430 0.100000 -3.168535
v -2.888859 0.100000 -2.337066
v -0.666579 0.100000 0.988811
v -0.111009 0.100000 1.820279
v -0.666579 0.050000 0.988811
v -2.888859 0.050000 -2.337066
v 0.949745 0.000000 0.949738
v -3.292894 0.000000 -3.292899
v -3.292894 0.100000 -3.292899
v -2.585787 0.100000 -2.585793
v 0.242639 0.100000 0.242632
v 0.949745 0.100000 0.949738
v 0.242639 0.050000 0.242632
v -2.585787 0.050000 -2.585793
v 1.820283 0.000000 -0.111019
v -3.168533 0.000000 -3.444437
v -3.168533 0.100000 -3.444437
v -2.337063 0.100000 -2.888867
v 0.988814 0.100000 -0.666588
v 1.820283 0.100000 -0.111019
v 0.988814 0.050000 -0.666588
v -2.337063 0.050000 -2.888867
v 2.467151 0.000000 -1.321227
v -3.076124 0.000000 -3.617325
v -3.076124 0.100000 -3.617325
v -2.152245 0.100000 -3.234642
v 1.543272 0.100000 -1.703910
v 2.467151 0.100000 -1.321227
v 1.543272 0.050000 -1.703910
v -2.152245 0.050000 -3.234642
v 2.865489 0.000000 -2.634379
v -3.019221 0.000000 -3.804919
v -3.019221 0.100000 -3.804919
v -2.038435 0.100000 -3.609829
v 1.884704 0.100000 -2.829469
v 2.865489 0.100000 -2.634379
v 1.884704 0.050000 -2.829469
v -2.038435 0.050000 -3.609829
v 2.999989 0.000000 -4.000011
v -3.000008 0.000000 -4.000010
v -3.000008 0.100000 -4.000010
v -2.000008 0.100000 -4.000010
v 1.999990 0.100000 -4.000010
v 2.999989 0.100000 -4.000011
v 1.999990 0.050000 -4.000010
v -2.000008 0.050000 -4.000010
vt 0.376858 0.072489
vt 0.427567 0.077448
vt 0.393761 0.246197
vt 0.476327 0.092135
vt 0.410014 0.251092
vt 0.521265 0.115984
vt 0.424993 0.259042
vt 0.560653 0.148080
vt 0.438123 0.269741
vt 0.592978 0.187189
vt 0.448898 0.282777
vt 0.616998 0.231808
vt 0.456904 0.297650
vt 0.631789 0.280222
vt 0.461835 0.313788
vt 0.636783 0.330571
vt 0.463499 0.330571
vt 0.000000 0.000000
vt 0.242933 0.509787
vt 0.169889 0.509787
vt 0.715277 0.492311
vt 0.715277 0.446219
vt 0.715277 0.392020
vt 0.715277 0.331798
vt 0.715277 0.267867
vt 0.715277 0.202682
vt 0.715277 0.138751
vt 0.715277 0.078528
vt 0.096846 0.509787
vt 0.376858 0.244544
vt 0.823489 0.196245
vt 0.823489 0.191495
vt 0.875560 0.191495
vt 0.845133 0.387689
vt 0.897204 0.387689
vt 0.897204 0.392439
vt 0.924562 0.199982
vt 0.924562 0.255686
vt 0.919273 0.255686
vt 0.720566 0.446219
vt 0.836279 0.506652
vt 0.790238 0.456264
vt 0.834212 0.429873
vt 0.815734 0.336534
vt 0.802579 0.322138
vt 0.846553 0.295747
vt 0.837561 0.340061
vt 0.837561 0.349345
vt 0.832272 0.349345
vt 0.908696 0.385944
vt 0.908696 0.372775
vt 0.913984 0.372775
vt 0.924562 0.311166
vt 0.919273 0.311166
vt 0.720566 0.392020
vt 0.756026 0.398776
vt 0.804888 0.380598
vt 0.792804 0.305713
vt 0.841666 0.287534
vt 0.837561 0.358592
vt 0.832272 0.358592
vt 0.908696 0.357289
vt 0.913984 0.357289
vt 0.924562 0.364291
vt 0.919273 0.364291
vt 0.720566 0.331798
vt 0.734959 0.336399
vt 0.786830 0.327132
vt 0.786785 0.287891
vt 0.838656 0.278623
vt 0.837561 0.367446
vt 0.832272 0.367446
vt 0.908696 0.340083
vt 0.913984 0.340083
vt 0.924562 0.413020
vt 0.919273 0.413020
vt 0.720566 0.267867
vt 0.727845 0.271529
vt 0.780733 0.271529
vt 0.784752 0.269356
vt 0.837640 0.269356
vt 0.837561 0.375567
vt 0.832272 0.375567
vt 0.908696 0.321817
vt 0.913984 0.321817
vt 0.929851 0.364291
vt 0.720566 0.202682
vt 0.734959 0.206658
vt 0.786830 0.215926
vt 0.786784 0.250822
vt 0.838656 0.260089
vt 0.832272 0.411074
vt 0.832272 0.402952
vt 0.837561 0.402952
vt 0.908696 0.303193
vt 0.913984 0.303193
vt 0.929851 0.311166
vt 0.720566 0.138751
vt 0.756026 0.144281
vt 0.804888 0.162459
vt 0.792804 0.233000
vt 0.841666 0.251178
vt 0.832272 0.394098
vt 0.837561 0.394098
vt 0.908696 0.284926
vt 0.913984 0.284926
vt 0.929851 0.255686
vt 0.720566 0.078528
vt 0.790238 0.086794
vt 0.834212 0.113184
vt 0.802578 0.216575
vt 0.846553 0.242965
vt 0.832272 0.384851
vt 0.837561 0.384851
vt 0.908696 0.267720
vt 0.913984 0.267720
vt 0.929851 0.199982
vt 0.715277 0.024330
vt 0.720566 0.024330
vt 0.836279 0.036406
vt 0.873676 0.069995
vt 0.815733 0.202178
vt 0.853131 0.235767
vt 0.908696 0.252235
vt 0.913984 0.252235
vt 0.845133 0.335436
vt 0.897204 0.335437
vt 0.897204 0.340187
vt 0.881834 0.149164
vt 0.881834 0.144414
vt 0.933905 0.144414
vt 0.875560 0.196245
vt 0.845133 0.392439
vt 0.919273 0.199982
vt 0.720566 0.492311
vt 0.873676 0.473063
vt 0.853131 0.302945
vt 0.832272 0.340061
vt 0.913984 0.385944
vt 0.929851 0.413020
vt 0.837561 0.411074
vt 0.845133 0.340187
vt 0.933905 0.149164
vt 0.315977 0.083698
vt 0.242933 0.083698
vt 0.242933 0.022829
vt 0.315977 0.509787
vt 0.242933 0.448917
vt 0.315977 0.448917
vt 0.242933 0.388047
vt 0.875560 0.143993
vt 0.823489 0.143993
vt 0.315977 0.388047
vt 0.242933 0.144568
vt 0.315977 0.144568
vt 0.897204 0.439941
vt 0.096846 0.022829
vt 0.096846 0.083698
vt 0.023802 0.083698
vt 0.096846 0.144568
vt 0.023802 0.144568
vt 0.096846 0.388047
vt 0.023802 0.388047
vt 0.096846 0.448917
vt 0.023802 0.448917
vt 0.169889 0.022829
vt 0.023802 0.509787
vt 0.933905 0.196666
vt 0.881834 0.196666
vt 0.315977 0.022829
vt 0.845133 0.439941
vt 0.023802 0.022829
vn 0.000000 1.000000 0.000000
vn 0.000000 0.707100 0.707100
vn 0.048000 0.871800 0.487600
vn 0.091500 0.949000 0.301600
vn 0.118200 0.968000 0.221200
vn 0.143900 0.973900 0.175400
vn 0.175400 0.973900 0.143900
vn 0.221200 0.968000 0.118200
vn 0.301600 0.949000 0.091500
vn 0.487600 0.871800 0.048000
vn 0.707100 0.707100 -0.000000
vn -1.000000 0.000000 -0.000000
vn -0.098000 0.000000 -0.995200
vn 0.098000 0.000000 0.995200
vn -0.290300 0.000000 -0.956900
vn 0.290300 0.000000 0.956900
vn -0.471400 0.000000 -0.881900
vn 0.471400 0.000000 0.881900
vn -0.634400 0.000000 -0.773000
vn 0.634400 0.000000 0.773000
vn -0.773000 0.000000 -0.634400
vn 0.773000 0.000000 0.634400
vn -0.881900 0.000000 -0.471400
vn 0.881900 0.000000 0.471400
vn -0.956900 0.000000 -0.290300
vn 0.956900 0.000000 0.290300
vn -0.995200 0.000000 -0.098000
vn 0.995200 0.000000 0.098000
vn -0.000000 0.000000 -1.000000
vn 0.000000 -0.000000 1.000000
vn 1.000000 0.000000 -0.000000
vn -0.678300 0.705400 -0.205700
vn -0.705400 0.705400 -0.069500
vn -0.625100 0.705400 -0.334100
vn -0.547900 0.705400 -0.449700
vn -0.449700 0.705400 -0.547900
vn -0.334100 0.705400 -0.625100
vn -0.205800 0.705400 -0.678300
vn -0.069500 0.705400 -0.705400
g road-corner-low_Cube.127_road
usemtl road
s off
f 10/1/1 39/2/1 40/3/1
f 39/2/1 47/4/1 48/5/1
f 47/4/1 55/6/1 56/7/1
f 55/6/1 63/8/1 64/9/1
f 63/8/1 71/10/1 72/11/1
f 71/10/1 79/12/1 80/13/1
f 79/12/1 87/14/1 88/15/1
f 87/14/1 95/16/1 96/17/1
f 12/18/2 4/19/2 13/20/2
f 33/18/3 4/21/3 12/18/3
f 33/18/4 12/18/4 41/22/4
f 41/18/5 12/18/5 49/23/5
f 49/18/6 12/18/6 57/24/6
f 57/18/7 12/18/7 65/25/7
f 65/18/8 12/18/8 73/26/8
f 73/18/9 12/18/9 81/27/9
f 81/18/10 12/18/10 89/28/10
f 24/29/11 89/18/11 12/18/11
f 11/30/1 10/1/1 40/3/1
f 40/3/1 39/2/1 48/5/1
f 48/5/1 47/4/1 56/7/1
f 56/7/1 55/6/1 64/9/1
f 64/9/1 63/8/1 72/11/1
f 72/11/1 71/10/1 80/13/1
f 80/13/1 79/12/1 88/15/1
f 88/15/1 87/14/1 96/17/1
g road-corner-low_Cube.127_border
usemtl border
f 8/31/12 10/32/12 4/33/12
f 7/34/12 6/35/12 5/36/12
f 8/37/13 37/38/13 39/39/13
f 4/21/14 33/22/14 38/40/14
f 9/41/1 38/42/1 37/43/1
f 7/44/1 36/45/1 35/46/1
f 6/47/13 35/48/13 34/49/13
f 11/50/14 40/51/14 36/52/14
f 37/38/15 45/53/15 47/54/15
f 33/22/16 41/23/16 46/55/16
f 38/42/1 46/56/1 45/57/1
f 36/45/1 44/58/1 43/59/1
f 35/48/15 43/60/15 42/61/15
f 40/51/16 48/62/16 44/63/16
f 45/53/17 53/64/17 55/65/17
f 41/23/18 49/24/18 54/66/18
f 46/56/1 54/67/1 53/68/1
f 44/58/1 52/69/1 51/70/1
f 43/60/17 51/71/17 50/72/17
f 48/62/18 56/73/18 52/74/18
f 53/64/19 61/75/19 63/76/19
f 49/24/20 57/25/20 62/77/20
f 54/67/1 62/78/1 61/79/1
f 52/69/1 60/80/1 59/81/1
f 51/71/19 59/82/19 58/83/19
f 56/73/20 64/84/20 60/85/20
f 61/75/21 69/64/21 71/86/21
f 57/25/22 65/26/22 70/87/22
f 62/78/1 70/88/1 69/89/1
f 60/80/1 68/90/1 67/91/1
f 59/92/21 67/93/21 66/94/21
f 64/84/22 72/95/22 68/96/22
f 69/64/23 77/53/23 79/97/23
f 65/26/24 73/27/24 78/98/24
f 70/88/1 78/99/1 77/100/1
f 68/90/1 76/101/1 75/102/1
f 67/93/23 75/103/23 74/104/23
f 72/95/24 80/105/24 76/106/24
f 77/53/25 85/38/25 87/107/25
f 73/27/26 81/28/26 86/108/26
f 78/99/1 86/109/1 85/110/1
f 76/101/1 84/111/1 83/112/1
f 75/103/25 83/113/25 82/114/25
f 80/105/26 88/115/26 84/116/26
f 85/38/27 93/37/27 95/117/27
f 81/28/28 89/118/28 94/119/28
f 86/109/1 94/120/1 93/121/1
f 84/111/1 92/122/1 91/123/1
f 83/113/27 91/83/27 90/82/27
f 88/115/28 96/124/28 92/125/28
f 93/126/29 94/127/29 89/128/29
f 90/129/29 91/130/29 92/131/29
f 9/132/12 8/31/12 4/33/12
f 11/133/12 7/34/12 5/36/12
f 10/134/13 8/37/13 39/39/13
f 9/135/14 4/21/14 38/40/14
f 8/136/1 9/41/1 37/43/1
f 6/137/1 7/44/1 35/46/1
f 5/138/13 6/47/13 34/49/13
f 7/139/14 11/50/14 36/52/14
f 39/39/15 37/38/15 47/54/15
f 38/40/16 33/22/16 46/55/16
f 37/43/1 38/42/1 45/57/1
f 35/46/1 36/45/1 43/59/1
f 34/49/15 35/48/15 42/61/15
f 36/52/16 40/51/16 44/63/16
f 47/54/17 45/53/17 55/65/17
f 46/55/18 41/23/18 54/66/18
f 45/57/1 46/56/1 53/68/1
f 43/59/1 44/58/1 51/70/1
f 42/61/17 43/60/17 50/72/17
f 44/63/18 48/62/18 52/74/18
f 55/65/19 53/64/19 63/76/19
f 54/66/20 49/24/20 62/77/20
f 53/68/1 54/67/1 61/79/1
f 51/70/1 52/69/1 59/81/1
f 50/72/19 51/71/19 58/83/19
f 52/74/20 56/73/20 60/85/20
f 63/140/21 61/75/21 71/86/21
f 62/77/22 57/25/22 70/87/22
f 61/79/1 62/78/1 69/89/1
f 59/81/1 60/80/1 67/91/1
f 58/141/21 59/92/21 66/94/21
f 60/85/22 64/84/22 68/96/22
f 71/86/23 69/64/23 79/97/23
f 70/87/24 65/26/24 78/98/24
f 69/89/1 70/88/1 77/100/1
f 67/91/1 68/90/1 75/102/1
f 66/94/23 67/93/23 74/104/23
f 68/96/24 72/95/24 76/106/24
f 79/97/25 77/53/25 87/107/25
f 78/98/26 73/27/26 86/108/26
f 77/100/1 78/99/1 85/110/1
f 75/102/1 76/101/1 83/112/1
f 74/104/25 75/103/25 82/114/25
f 76/106/26 80/105/26 84/116/26
f 87/107/27 85/38/27 95/117/27
f 86/108/28 81/28/28 94/119/28
f 85/110/1 86/109/1 93/121/1
f 83/112/1 84/111/1 91/123/1
f 82/114/27 83/113/27 90/82/27
f 84/116/28 88/115/28 92/125/28
f 95/142/29 93/126/29 89/128/29
f 96/143/29 90/129/29 92/131/29
g road-corner-low_Cube.127_ground
usemtl ground
f 18/144/12 22/145/12 14/146/12
f 2/147/12 13/19/12 19/148/12
f 15/149/12 19/148/12 20/150/12
f 19/151/12 13/19/12 4/18/12
f 10/32/12 20/152/12 19/151/12
f 16/153/12 20/150/12 21/154/12
f 17/155/12 21/154/12 22/145/12
f 11/133/12 5/36/12 22/156/12
f 23/157/29 25/158/29 29/159/29
f 25/158/29 26/160/29 30/161/29
f 26/160/29 27/162/29 31/163/29
f 27/162/29 28/164/29 32/165/29
f 1/19/30 12/20/30 13/166/30
f 23/20/31 24/29/31 12/157/31
f 82/18/32 14/18/32 74/114/32
f 3/29/29 14/167/29 32/165/29
f 90/18/33 14/18/33 82/82/33
f 29/128/29 89/18/29 24/159/29
f 29/35/29 30/34/29 95/142/29
f 96/143/29 31/168/29 32/169/29
f 74/18/34 14/18/34 66/104/34
f 66/18/35 14/18/35 58/94/35
f 58/18/36 14/18/36 50/83/36
f 50/18/37 14/18/37 42/72/37
f 42/18/38 14/18/38 34/61/38
f 34/18/39 14/18/39 5/49/39
f 22/36/12 5/18/12 14/145/12
f 32/169/29 14/167/29 90/18/29
f 3/170/12 18/144/12 14/146/12
f 15/149/12 2/147/12 19/148/12
f 16/153/12 15/149/12 20/150/12
f 4/33/12 10/32/12 19/151/12
f 17/155/12 16/153/12 21/154/12
f 18/144/12 17/155/12 22/145/12
f 21/171/12 11/133/12 22/156/12
f 24/172/29 23/157/29 29/159/29
f 29/159/29 25/158/29 30/161/29
f 30/161/29 26/160/29 31/163/29
f 31/163/29 27/162/29 32/165/29
f 2/146/30 1/19/30 13/166/30
f 1/166/31 23/20/31 12/157/31
f 28/164/29 3/29/29 32/165/29
f 89/128/29 29/35/29 95/142/29
f 90/129/29 96/143/29 32/169/29
