# Blender v2.71 (sub 0) OBJ File: 'landscape_v2.blend'
# www.blender.org
mtllib road.mtl
o road-straight-low_Cube.131
v 3.999998 -2.000000 3.999998
v -3.999998 -2.000000 3.999998
v -3.999997 -2.000000 -3.999999
v 4.000000 -2.000000 -3.999996
v 3.999996 0.000000 3.000000
v 3.999998 0.000000 -2.999998
v -4.000000 0.000000 2.999996
v -3.999997 0.000000 -3.000000
v -3.999997 0.100000 -3.000000
v -3.999997 0.100000 -2.000001
v -4.000000 0.100000 1.999997
v -4.000000 0.100000 2.999996
v 3.999998 0.100000 -2.999998
v 3.999998 0.100000 -1.999998
v 3.999996 0.100000 2.000001
v 3.999996 0.100000 3.000000
v 3.999996 0.050000 2.000001
v 3.999998 0.050000 -1.999998
v -4.000000 0.050000 1.999997
v -3.999997 0.050000 -2.000001
v 3.999997 -1.000000 3.999999
v -3.999999 -1.000000 3.999996
v -3.999997 -1.000000 -3.999999
v 3.999999 -1.000000 -3.999997
v 3.999998 -2.000000 2.999999
v 3.999998 -2.000000 2.000000
v 4.000000 -2.000000 -1.999998
v 4.000000 -2.000000 -2.999997
v 3.999997 -1.000000 3.000000
v 3.999997 -1.000000 2.000000
v 3.999999 -1.000000 -1.999998
v 3.999999 -1.000000 -2.999997
v -3.999998 -2.000000 2.999998
v -3.999998 -2.000000 1.999999
v -3.999997 -2.000000 -2.000000
v -3.999997 -2.000000 -2.999999
v -3.999999 -1.000000 2.999997
v -3.999999 -1.000000 1.999997
v -3.999997 -1.000000 -2.000000
v -3.999997 -1.000000 -3.000000
v -0.000002 0.100000 2.999998
v -0.000002 0.100000 1.999999
v 0.000000 0.100000 -2.000000
v 0.000000 0.100000 -2.999999
v -3.999997 0.075000 -2.000001
v 1.999999 0.100000 -1.999999
v 3.999998 0.075000 -1.999998
v 0.000000 0.050000 -2.000000
v -1.999999 0.100000 -2.000000
vt 0.167602 0.070614
vt 0.167601 0.007235
vt 0.230981 0.007235
vt 0.040843 0.007235
vt 0.104222 0.007235
vt 0.104222 0.514268
vt 0.230981 0.450889
vt 0.294360 0.450889
vt 0.294360 0.514268
vt 0.879478 0.036762
vt 0.040843 0.514268
vt 0.000000 0.000000
vt 0.962355 0.498429
vt 0.294360 0.007235
vt 0.815726 0.217923
vt 0.167602 0.450889
vt 0.230981 0.514268
vt 0.167602 0.387510
vt 0.230981 0.387510
vt 0.294360 0.070614
vt 0.230981 0.070614
vt 0.294360 0.133993
vt 0.879478 0.095201
vt 0.962355 0.030918
vt 0.167602 0.133993
vt 0.230981 0.133993
vt 0.294360 0.387510
vt 0.815726 0.036762
vt 0.167601 0.514268
vt 0.949604 0.030918
vt 0.968730 0.498429
vt 0.968730 0.264674
vt 0.955979 0.264674
vt 0.955979 0.030918
vt 0.949604 0.264674
vt 0.943229 0.381551
vt 0.943229 0.264674
vt 0.949604 0.498429
vt 0.955979 0.498429
vt 0.471615 0.249215
vt 0.815726 0.095201
vt 0.943229 0.036762
vt 0.943229 0.095201
vt 0.968730 0.030918
vt 0.943229 0.147796
vt 0.943229 0.030918
vt 0.946417 0.030918
vt 0.946417 0.498429
vt 0.943229 0.498429
vt 0.914541 0.267595
vt 0.351107 0.102517
vt 0.585976 0.102517
vt 0.351106 0.278669
vt 0.585976 0.278669
vt 0.644693 0.102517
vt 0.587235 0.279672
vt 0.645952 0.279672
vt 0.645952 0.455824
vt 0.351106 0.454821
vt 0.585976 0.454821
vt 0.644693 0.278669
vt 0.587235 0.455824
vt 0.879478 0.153640
vt 0.815726 0.153640
vt 0.879478 0.217923
vt 0.815726 0.159484
vt 0.471615 0.132337
vt 0.911353 0.124420
vt 0.879478 0.159484
vn 1.000000 0.000000 0.000000
vn -0.000000 0.000000 1.000000
vn -1.000000 0.000000 -0.000000
vn 0.000000 -0.000000 -1.000000
vn -0.000000 0.707100 0.707100
vn 0.000000 0.707100 -0.707100
vn 0.000000 1.000000 0.000000
g road-straight-low_Cube.131_ground.002
usemtl ground.002
s off
f 28/1/1 4/2/1 24/3/1
f 22/4/2 2/5/2 1/6/2
f 36/7/3 40/8/3 23/9/3
f 23/6/4 24/5/4 4/2/4
f 5/10/1 21/11/1 29/7/1
f 5/12/5 7/13/5 22/14/5
f 23/8/3 40/15/3 8/6/3
f 25/16/1 29/7/1 21/17/1
f 26/18/1 30/19/1 29/7/1
f 2/3/3 22/14/3 37/20/3
f 33/21/3 37/20/3 38/22/3
f 24/12/1 6/23/1 32/3/1
f 22/14/3 7/12/3 37/23/3
f 8/12/6 6/24/6 24/12/6
f 27/25/1 31/26/1 30/19/1
f 28/1/1 32/21/1 31/26/1
f 34/26/3 38/22/3 39/27/3
f 35/19/3 39/27/3 40/8/3
f 15/12/1 16/24/1 5/28/1
f 32/21/1 28/1/1 24/3/1
f 21/11/2 22/4/2 1/6/2
f 3/29/4 23/6/4 4/2/4
f 3/17/3 36/7/3 23/9/3
f 21/11/5 5/12/5 22/14/5
f 1/29/1 25/16/1 21/17/1
f 25/16/1 26/18/1 29/7/1
f 33/21/3 2/3/3 37/20/3
f 34/26/3 33/21/3 38/22/3
f 23/6/6 8/12/6 24/12/6
f 26/18/1 27/25/1 30/19/1
f 27/25/1 28/1/1 31/26/1
f 35/19/3 34/26/3 39/27/3
f 36/7/3 35/19/3 40/8/3
f 17/30/1 15/12/1 5/28/1
g road-straight-low_Cube.131_border1.001
usemtl border1.001
f 12/31/2 7/13/2 41/32/2
f 44/33/4 13/34/4 6/24/4
f 48/35/2 46/36/2 43/37/2
f 11/38/4 42/35/4 19/39/4
f 6/34/1 13/12/1 18/10/1
f 46/40/7 14/12/7 13/33/7
f 29/23/1 30/41/1 17/28/1
f 18/42/1 31/43/1 32/23/1
f 16/12/7 15/35/7 42/32/7
f 16/44/2 41/32/2 5/24/2
f 8/13/4 9/39/4 44/33/4
f 41/32/2 7/13/2 5/24/2
f 44/33/4 6/24/4 8/13/4
f 49/45/2 10/46/2 45/47/2
f 48/35/2 49/45/2 20/30/2
f 47/48/2 46/36/2 18/38/2
f 47/48/2 14/49/2 46/36/2
f 49/45/2 48/35/2 43/37/2
f 49/45/2 45/47/2 20/30/2
f 46/36/2 48/35/2 18/38/2
f 42/35/4 15/30/4 17/34/4
f 14/38/1 47/50/1 13/12/1
f 42/35/4 17/34/4 19/39/4
f 13/12/1 47/50/1 18/10/1
f 44/12/7 43/49/7 46/40/7
f 46/40/7 13/33/7 44/12/7
f 5/10/1 29/23/1 17/28/1
f 6/10/1 18/42/1 32/23/1
f 41/44/7 16/12/7 42/32/7
g road-straight-low_Cube.131_road.002
usemtl road.002
f 20/51/7 19/52/7 48/53/7
f 30/54/1 31/52/1 18/55/1
f 20/56/3 39/57/3 38/58/3
f 18/59/7 48/53/7 17/60/7
f 48/53/7 19/52/7 17/60/7
f 17/61/1 30/54/1 18/55/1
f 19/62/3 20/56/3 38/58/3
g road-straight-low_Cube.131_border2
usemtl border2
f 11/39/3 19/63/3 7/31/3
f 19/64/3 38/41/3 37/23/3
f 20/65/3 8/15/3 40/66/3
f 41/32/7 42/12/7 11/38/7
f 9/12/7 10/37/7 49/67/7
f 10/46/3 9/12/3 45/68/3
f 12/12/3 11/39/3 7/31/3
f 7/63/3 19/64/3 37/23/3
f 39/69/3 20/65/3 40/66/3
f 12/12/7 41/32/7 11/38/7
f 9/12/7 49/67/7 44/39/7
f 9/12/3 8/13/3 20/65/3
f 49/67/7 43/12/7 44/39/7
f 9/12/3 20/65/3 45/68/3
