# Blender v2.69 (sub 0) OBJ File: ''
# www.blender.org
o Cube
v 0.712773 -0.219590 -1.463114
v 0.712773 -0.219590 1.463114
v -0.712773 -0.219590 1.463114
v -0.712772 -0.219590 -1.463115
v 0.712773 0.219590 -1.463113
v 0.712772 0.219590 1.463115
v -0.712773 0.219590 1.463114
v -0.712773 0.219590 -1.463114
v 0.712773 0.903760 0.000001
v 0.000000 0.219590 -1.463114
v -0.000000 0.219590 1.463114
v -0.712773 0.903760 -0.000000
v -0.000000 0.903760 0.000000
v 0.712772 0.903760 0.731558
v -0.356386 0.219590 -1.463114
v -0.356387 0.219590 1.463114
v -0.712773 0.219590 -0.731557
v 0.712773 0.219590 -0.731556
v 0.356387 0.219590 -1.463114
v 0.356386 0.219590 1.463115
v -0.712773 0.903760 0.731557
v -0.000000 0.903760 0.731557
v 0.000000 0.219590 -0.731557
v 0.356386 0.903760 0.000001
v -0.356386 0.903760 0.000000
v -0.356387 0.903760 0.731557
v 0.356386 0.903760 0.731558
v 0.356386 0.219590 -0.731557
v -0.356386 0.219590 -0.731557
v 0.544754 0.383267 1.454553
v -0.544755 0.383267 1.454552
v -0.000000 0.383267 1.454553
v 0.544755 0.906163 0.895442
v -0.272378 0.383267 1.454552
v 0.272377 0.383267 1.454553
v -0.544755 0.906163 0.895441
v -0.000000 0.906163 0.895441
v -0.272378 0.906163 0.895441
v 0.272377 0.906163 0.895442
v 0.484448 1.075986 0.117172
v -0.484448 1.075986 0.117171
v -0.000000 1.075986 0.117171
v 0.484448 1.075986 0.614387
v -0.484448 1.075986 0.614386
v -0.000000 1.075986 0.614386
v 0.242224 1.075986 0.117171
v -0.242224 1.075986 0.117171
v -0.242224 1.075986 0.614386
v 0.242224 1.075986 0.614387
v 0.478465 0.491736 -1.342872
v -0.478465 0.491736 -1.342873
v 0.000000 0.491736 -1.342872
v -0.239232 0.491736 -1.342873
v -0.478465 0.491736 -0.851799
v 0.478465 0.491736 -0.851798
v 0.239233 0.491736 -1.342872
v 0.000000 0.491736 -0.851798
v 0.239232 0.491736 -0.851798
v -0.239232 0.491736 -0.851799
v 0.330610 0.330301 -1.266996
v -0.330609 0.330301 -1.266997
v 0.000000 0.330301 -1.266997
v -0.165305 0.330301 -1.266997
v -0.330609 0.330301 -0.927674
v 0.330610 0.330301 -0.927674
v 0.165305 0.330301 -1.266997
v 0.000000 0.330301 -0.927674
v 0.165305 0.330301 -0.927674
v -0.165305 0.330301 -0.927674
vn 0.000000 -1.000000 0.000000
vn 0.000000 0.999893 -0.014655
vn 1.000000 -0.000001 0.000000
vn -0.000001 0.000001 1.000000
vn -1.000000 -0.000001 -0.000000
vn 0.000002 0.000002 -1.000000
vn 0.000000 0.730365 -0.683057
vn 0.000001 0.730365 -0.683057
vn -0.000001 0.562500 0.826798
vn 0.000000 0.999893 -0.014656
vn -0.000000 0.562500 0.826798
vn -0.000001 0.562500 0.826797
vn -0.000001 0.404139 0.914698
vn -0.000001 0.404138 0.914698
vn -0.000001 0.730365 0.683057
vn -0.000001 0.730366 0.683056
vn 0.000000 0.730366 0.683057
vn -0.000002 0.052238 0.998635
vn -0.000001 0.052238 0.998635
vn -0.560436 0.604887 0.565705
vn -0.000001 0.052237 0.998635
vn 0.560435 0.604888 0.565706
vn 0.000000 1.000000 0.000000
vn 0.000001 0.562500 -0.826798
vn 0.000001 0.562500 -0.826797
vn -0.602195 0.798349 0.000000
vn 0.602195 0.798349 0.000000
vn 0.000001 0.562499 -0.826798
vn 0.000001 0.425369 -0.905020
vn 0.000001 0.425370 -0.905020
vn 0.000001 0.404138 -0.914698
vn 0.000000 0.404138 -0.914698
vn 0.000001 0.404139 -0.914698
vn 0.757824 0.652459 0.000000
vn -0.757824 0.652460 -0.000000
vn -0.000001 0.425370 0.905020
vn 0.000000 0.425370 0.905020
vn -0.737441 0.675411 -0.000000
vn 0.737441 0.675411 0.000000
vn -0.000001 0.425369 0.905020
vn 0.000000 0.999892 -0.014656
vn 1.000000 -0.000000 0.000000
vn 1.000000 0.000001 0.000000
vn -0.000001 -0.000002 1.000000
vn -0.000000 -0.000001 1.000000
vn -0.000002 0.000000 1.000000
vn -1.000000 0.000000 -0.000000
vn 0.000000 0.000001 -1.000000
vn 0.000002 0.000001 -1.000000
vn 0.000001 0.730366 -0.683056
vn -0.000000 0.562500 0.826797
vn -0.000001 0.562499 0.826798
vn 0.000001 0.730366 -0.683057
vn -0.000000 0.404138 0.914698
vn -0.000000 0.404139 0.914698
vn -0.000002 0.730365 0.683057
vn -0.000001 0.730366 0.683057
vn -0.560434 0.604888 0.565707
vn -0.000001 0.052239 0.998635
vn 0.560435 0.604887 0.565706
vn 0.000000 0.425370 -0.905020
vn 0.000000 0.425369 -0.905020
vn 0.757824 0.652460 0.000000
vn -0.757824 0.652459 0.000000
vn 0.000000 0.404139 -0.914698
vn 0.000000 0.425369 0.905020
vn -0.737441 0.675412 -0.000000
vn 0.737441 0.675412 0.000000
s off
f 1//1 2//1 4//1
f 22//2 26//2 37//2
f 1//3 5//3 18//3
f 3//4 16//4 7//4
f 4//5 17//5 8//5
f 5//6 1//6 19//6
f 26//2 21//2 38//2
f 28//7 23//7 24//7
f 29//8 17//8 25//8
f 14//2 27//2 39//2
f 26//9 22//9 45//9
f 21//9 26//9 48//9
f 27//10 22//10 37//10
f 27//11 14//11 49//11
f 22//12 27//12 45//12
f 18//8 28//8 9//8
f 28//13 18//13 58//13
f 23//14 28//14 57//14
f 23//7 29//7 13//7
f 29//14 23//14 57//14
f 17//14 29//14 59//14
f 38//15 36//15 34//15
f 39//16 37//16 35//16
f 37//17 38//17 32//17
f 33//15 39//15 30//15
f 11//18 20//18 32//18
f 16//19 11//19 32//19
f 21//20 7//20 36//20
f 20//21 6//21 35//21
f 7//18 16//18 34//18
f 6//22 14//22 30//22
f 42//23 47//23 45//23
f 47//23 41//23 48//23
f 40//23 46//23 43//23
f 46//23 42//23 49//23
f 25//24 12//24 47//24
f 24//25 13//25 42//25
f 12//26 21//26 41//26
f 14//27 9//27 43//27
f 13//28 25//28 42//28
f 9//24 24//24 46//24
f 58//29 55//29 68//29
f 57//29 58//29 67//29
f 59//30 57//30 67//30
f 54//29 59//29 69//29
f 19//31 10//31 52//31
f 10//32 15//32 52//32
f 5//33 19//33 56//33
f 18//34 5//34 55//34
f 8//35 17//35 51//35
f 15//33 8//33 53//33
f 60//23 66//23 65//23
f 66//23 62//23 68//23
f 62//23 63//23 67//23
f 63//23 61//23 69//23
f 56//36 52//36 62//36
f 52//37 53//37 62//37
f 50//36 56//36 66//36
f 55//38 50//38 65//38
f 51//39 54//39 61//39
f 53//40 51//40 63//40
f 2//1 3//1 4//1
f 26//41 38//41 37//41
f 6//42 9//42 14//42
f 6//42 18//42 9//42
f 2//43 1//43 6//43
f 1//3 18//3 6//3
f 2//44 6//44 20//44
f 3//45 2//45 20//45
f 16//46 3//46 11//46
f 3//4 20//4 11//4
f 7//5 21//5 12//5
f 7//47 12//47 17//47
f 3//47 7//47 4//47
f 7//47 17//47 4//47
f 4//48 8//48 15//48
f 1//48 4//48 19//48
f 4//49 15//49 10//49
f 19//48 4//48 10//48
f 21//2 36//2 38//2
f 23//8 13//8 24//8
f 17//50 12//50 25//50
f 33//10 14//10 39//10
f 48//51 26//51 45//51
f 44//51 21//51 48//51
f 39//10 27//10 37//10
f 14//12 43//12 49//12
f 27//52 49//52 45//52
f 28//53 24//53 9//53
f 18//54 55//54 58//54
f 28//55 58//55 57//55
f 29//53 25//53 13//53
f 59//13 29//13 57//13
f 54//55 17//55 59//55
f 36//15 31//15 34//15
f 37//56 32//56 35//56
f 38//15 34//15 32//15
f 39//57 35//57 30//57
f 20//21 35//21 32//21
f 34//19 16//19 32//19
f 7//58 31//58 36//58
f 6//19 30//19 35//19
f 31//59 7//59 34//59
f 14//60 33//60 30//60
f 47//23 48//23 45//23
f 41//23 44//23 48//23
f 46//23 49//23 43//23
f 42//23 45//23 49//23
f 12//25 41//25 47//25
f 46//25 24//25 42//25
f 21//26 44//26 41//26
f 9//27 40//27 43//27
f 25//24 47//24 42//24
f 40//25 9//25 46//25
f 55//61 65//61 68//61
f 58//61 68//61 67//61
f 69//61 59//61 67//61
f 64//62 54//62 69//62
f 56//33 19//33 52//33
f 15//33 53//33 52//33
f 50//31 5//31 56//31
f 5//63 50//63 55//63
f 17//64 54//64 51//64
f 8//65 51//65 53//65
f 66//23 68//23 65//23
f 62//23 67//23 68//23
f 63//23 69//23 67//23
f 61//23 64//23 69//23
f 66//66 56//66 62//66
f 53//66 63//66 62//66
f 60//66 50//66 66//66
f 50//67 60//67 65//67
f 54//68 64//68 61//68
f 51//40 61//40 63//40
